<svg xmlns="http://www.w3.org/2000/svg" viewBox="0 0 800 520">
  <defs>
    <linearGradient id="sbg3" x1="0" y1="0" x2="1" y2="1">
      <stop offset="0%" stop-color="#f5f3ff"/>
      <stop offset="100%" stop-color="#ede9fe"/>
    </linearGradient>
  </defs>
  <rect width="800" height="520" rx="16" fill="url(#sbg3)"/>
  <!-- Email compose view -->
  <rect x="80" y="30" width="640" height="460" rx="12" fill="#fff" opacity=".95"/>
  <!-- Header -->
  <rect x="100" y="50" width="600" height="44" rx="8" fill="#f9fafb"/>
  <circle cx="124" cy="72" r="8" fill="#8b5cf6"/>
  <rect x="144" y="66" width="100" height="12" rx="4" fill="#c4b5fd"/>
  <rect x="580" y="62" width="80" height="20" rx="6" fill="#8b5cf6"/>
  <!-- To/Subject fields -->
  <rect x="100" y="110" width="600" height="1" fill="#e5e7eb"/>
  <rect x="116" y="122" width="20" height="10" rx="3" fill="#9ca3af"/>
  <rect x="150" y="120" width="200" height="14" rx="4" fill="#ddd6fe" opacity=".5"/>
  <rect x="100" y="146" width="600" height="1" fill="#e5e7eb"/>
  <rect x="116" y="160" width="50" height="10" rx="3" fill="#9ca3af"/>
  <rect x="180" y="158" width="300" height="14" rx="4" fill="#ddd6fe" opacity=".4"/>
  <rect x="100" y="184" width="600" height="1" fill="#e5e7eb"/>
  <!-- Toolbar -->
  <rect x="116" y="196" width="24" height="20" rx="4" fill="#f3f4f6"/>
  <rect x="148" y="196" width="24" height="20" rx="4" fill="#f3f4f6"/>
  <rect x="180" y="196" width="24" height="20" rx="4" fill="#f3f4f6"/>
  <rect x="212" y="196" width="24" height="20" rx="4" fill="#f3f4f6"/>
  <rect x="252" y="196" width="24" height="20" rx="4" fill="#f3f4f6"/>
  <rect x="284" y="196" width="24" height="20" rx="4" fill="#f3f4f6"/>
  <!-- Body text -->
  <rect x="116" y="236" width="400" height="10" rx="3" fill="#d1d5db"/>
  <rect x="116" y="258" width="520" height="10" rx="3" fill="#d1d5db"/>
  <rect x="116" y="280" width="460" height="10" rx="3" fill="#d1d5db"/>
  <rect x="116" y="302" width="380" height="10" rx="3" fill="#d1d5db"/>
  <!-- Image placeholder in email -->
  <rect x="116" y="330" width="568" height="100" rx="8" fill="#f5f3ff"/>
  <rect x="350" y="366" width="100" height="28" rx="6" fill="#ddd6fe"/>
  <text x="368" y="384" font-family="sans-serif" font-size="10" fill="#7c3aed">Image</text>
  <!-- More text -->
  <rect x="116" y="446" width="480" height="8" rx="3" fill="#e5e7eb"/>
  <rect x="116" y="464" width="300" height="8" rx="3" fill="#e5e7eb"/>
</svg>
