<svg xmlns="http://www.w3.org/2000/svg" viewBox="0 0 800 520">
  <defs>
    <linearGradient id="sbg2" x1="0" y1="0" x2="1" y2="1">
      <stop offset="0%" stop-color="#faf5ff"/>
      <stop offset="100%" stop-color="#f0e7ff"/>
    </linearGradient>
  </defs>
  <rect width="800" height="520" rx="16" fill="url(#sbg2)"/>
  <!-- Email campaign dashboard -->
  <rect x="24" y="24" width="752" height="40" rx="8" fill="#fff" opacity=".8"/>
  <circle cx="48" cy="44" r="6" fill="#8b5cf6"/>
  <rect x="68" y="38" width="60" height="12" rx="4" fill="#e9d5ff"/>
  <rect x="140" y="38" width="50" height="12" rx="4" fill="#e9d5ff"/>
  <rect x="680" y="36" width="80" height="16" rx="8" fill="#8b5cf6"/>
  <!-- Stat cards -->
  <rect x="24" y="80" width="240" height="100" rx="12" fill="#fff" opacity=".9"/>
  <rect x="44" y="100" width="80" height="8" rx="3" fill="#c4b5fd"/>
  <text x="44" y="136" font-family="sans-serif" font-size="26" font-weight="bold" fill="#7c3aed">12,847</text>
  <rect x="44" y="152" width="60" height="8" rx="3" fill="#34d399"/>
  <rect x="280" y="80" width="240" height="100" rx="12" fill="#fff" opacity=".9"/>
  <rect x="300" y="100" width="80" height="8" rx="3" fill="#c4b5fd"/>
  <text x="300" y="136" font-family="sans-serif" font-size="26" font-weight="bold" fill="#7c3aed">68.3%</text>
  <rect x="300" y="152" width="60" height="8" rx="3" fill="#34d399"/>
  <rect x="536" y="80" width="240" height="100" rx="12" fill="#fff" opacity=".9"/>
  <rect x="556" y="100" width="80" height="8" rx="3" fill="#c4b5fd"/>
  <text x="556" y="136" font-family="sans-serif" font-size="26" font-weight="bold" fill="#7c3aed">4.2%</text>
  <rect x="556" y="152" width="60" height="8" rx="3" fill="#f59e0b" opacity=".6"/>
  <!-- Chart area -->
  <rect x="24" y="196" width="500" height="200" rx="12" fill="#fff" opacity=".85"/>
  <text x="44" y="224" font-family="sans-serif" font-size="13" fill="#6b7280">Campaign Performance</text>
  <!-- Bars -->
  <rect x="60" y="310" width="40" height="60" rx="4" fill="#8b5cf6" opacity=".3"/>
  <rect x="60" y="280" width="40" height="30" rx="4" fill="#8b5cf6"/>
  <rect x="120" y="290" width="40" height="80" rx="4" fill="#8b5cf6" opacity=".3"/>
  <rect x="120" y="250" width="40" height="40" rx="4" fill="#8b5cf6"/>
  <rect x="180" y="270" width="40" height="100" rx="4" fill="#8b5cf6" opacity=".3"/>
  <rect x="180" y="245" width="40" height="25" rx="4" fill="#8b5cf6"/>
  <rect x="240" y="260" width="40" height="110" rx="4" fill="#8b5cf6" opacity=".3"/>
  <rect x="240" y="240" width="40" height="20" rx="4" fill="#8b5cf6"/>
  <rect x="300" y="250" width="40" height="120" rx="4" fill="#8b5cf6" opacity=".3"/>
  <rect x="300" y="235" width="40" height="15" rx="4" fill="#8b5cf6"/>
  <rect x="360" y="280" width="40" height="90" rx="4" fill="#8b5cf6" opacity=".3"/>
  <rect x="360" y="260" width="40" height="20" rx="4" fill="#8b5cf6"/>
  <rect x="420" y="300" width="40" height="70" rx="4" fill="#8b5cf6" opacity=".3"/>
  <rect x="420" y="270" width="40" height="30" rx="4" fill="#8b5cf6"/>
  <!-- Right panel: recent campaigns -->
  <rect x="540" y="196" width="236" height="200" rx="12" fill="#fff" opacity=".85"/>
  <text x="560" y="224" font-family="sans-serif" font-size="13" fill="#6b7280">Recent Campaigns</text>
  <!-- Campaign items -->
  <rect x="560" y="240" width="196" height="36" rx="6" fill="#f5f3ff"/>
  <circle cx="576" cy="258" r="6" fill="#8b5cf6"/>
  <rect x="592" y="250" width="100" height="8" rx="3" fill="#7c3aed" opacity=".5"/>
  <rect x="592" y="262" width="60" height="6" rx="2" fill="#d8b4fe" opacity=".5"/>
  <rect x="560" y="284" width="196" height="36" rx="6" fill="#f0fdf4"/>
  <circle cx="576" cy="302" r="6" fill="#34d399"/>
  <rect x="592" y="294" width="110" height="8" rx="3" fill="#059669" opacity=".4"/>
  <rect x="592" y="306" width="70" height="6" rx="2" fill="#86efac" opacity=".5"/>
  <rect x="560" y="328" width="196" height="36" rx="6" fill="#fefce8"/>
  <circle cx="576" cy="346" r="6" fill="#f59e0b"/>
  <rect x="592" y="338" width="90" height="8" rx="3" fill="#d97706" opacity=".4"/>
  <rect x="592" y="350" width="80" height="6" rx="2" fill="#fcd34d" opacity=".5"/>
  <!-- Bottom bar -->
  <rect x="24" y="412" width="752" height="84" rx="12" fill="#fff" opacity=".85"/>
  <rect x="44" y="436" width="120" height="10" rx="4" fill="#c4b5fd"/>
  <rect x="44" y="458" width="200" height="8" rx="3" fill="#e9d5ff"/>
  <rect x="620" y="434" width="100" height="32" rx="8" fill="#8b5cf6"/>
</svg>
